<?xml version="1.0" encoding="UTF-8" standalone="no"?>
<!-- Created with Inkscape (http://www.inkscape.org/) -->

<svg
   width="512"
   height="512"
   viewBox="0 0 512 512"
   version="1.1"
   id="svg5"
   inkscape:version="1.2.2 (732a01da63, 2022-12-09)"
   sodipodi:docname="logo.svg"
   xmlns:inkscape="http://www.inkscape.org/namespaces/inkscape"
   xmlns:sodipodi="http://sodipodi.sourceforge.net/DTD/sodipodi-0.dtd"
   xmlns="http://www.w3.org/2000/svg"
   xmlns:svg="http://www.w3.org/2000/svg">
  <sodipodi:namedview
     id="namedview7"
     pagecolor="#ffffff"
     bordercolor="#666666"
     borderopacity="1.0"
     inkscape:showpageshadow="2"
     inkscape:pageopacity="0.0"
     inkscape:pagecheckerboard="0"
     inkscape:deskcolor="#d1d1d1"
     inkscape:document-units="mm"
     showgrid="false"
     inkscape:zoom="1.5376122"
     inkscape:cx="272.82561"
     inkscape:cy="220.47171"
     inkscape:window-width="2560"
     inkscape:window-height="1377"
     inkscape:window-x="1912"
     inkscape:window-y="-8"
     inkscape:window-maximized="1"
     inkscape:current-layer="layer1">
    <inkscape:grid
       type="xygrid"
       id="grid132"
       empspacing="2" />
  </sodipodi:namedview>
  <defs
     id="defs2" />
  <g
     inkscape:label="Layer 1"
     inkscape:groupmode="layer"
     id="layer1">
    <circle
       style="opacity:1;fill:#2980b9;fill-opacity:1;stroke:none;stroke-width:6;stroke-linecap:round;stroke-dasharray:6, 12;stroke-dashoffset:4.8;stroke-opacity:1"
       id="path13615"
       cx="256"
       cy="256"
       r="224" />
    <path
       id="path12109"
       style="fill:#ecf0f1;fill-opacity:1;stroke:none;stroke-width:1px;stroke-linecap:butt;stroke-linejoin:miter;stroke-opacity:1"
       d="M 316 160 L 204 256 L 204 352 L 446.62891 373.09766 A 224 224 0 0 0 475.75195 296.92969 L 316 160 z " />
    <path
       id="path10655"
       style="fill:#bdc3c7;fill-opacity:1;stroke:none;stroke-width:1px;stroke-linecap:butt;stroke-linejoin:miter;stroke-opacity:1"
       d="M 148 208 L 37.505859 302.70898 A 224 224 0 0 0 101.17383 417.15039 L 311.66797 472.54492 A 224 224 0 0 0 448.53711 369.60352 L 316 256 L 260 304 L 148 208 z " />
    <path
       id="path9925"
       style="fill:#7f8c8d;stroke:none;stroke-width:1px;stroke-linecap:butt;stroke-linejoin:miter;stroke-opacity:1;fill-opacity:1"
       d="M 148 304 L 66.013672 374.27344 A 224 224 0 0 0 256 480 A 224 224 0 0 0 335.58008 464.7832 L 148 304 z " />
    <path
       id="path2361"
       style="color:#000000;fill:#34495e;stroke-linecap:round;-inkscape-stroke:none"
       d="M 148.46094 202.01758 A 6 6 0 0 0 144.0957 203.44531 L 36.056641 296.04883 A 224 224 0 0 0 38.900391 309.11914 A 6 6 0 0 0 39.904297 308.55469 L 151.9043 212.55469 A 6 6 0 0 0 152.55469 204.0957 A 6 6 0 0 0 148.46094 202.01758 z " />
    <path
       style="color:#000000;fill:#34495e;stroke-linecap:round;-inkscape-stroke:none"
       d="m 147.53906,202.01758 a 6,6 0 0 0 -4.09375,2.07812 6,6 0 0 0 0.65039,8.45899 l 168,144 a 6,6 0 0 0 8.45899,-0.65039 6,6 0 0 0 -0.65039,-8.45899 l -168,-144 a 6,6 0 0 0 -4.36524,-1.42773 z"
       id="path3239" />
    <path
       style="color:#000000;fill:#34495e;stroke-linecap:round;-inkscape-stroke:none"
       d="m 316.46094,154.01758 a 6,6 0 0 0 -4.36524,1.42773 l -112,96 a 6,6 0 0 0 -0.65039,8.45899 6,6 0 0 0 8.45899,0.65039 l 112,-96 a 6,6 0 0 0 0.65039,-8.45899 6,6 0 0 0 -4.09375,-2.07812 z"
       id="path4811" />
    <path
       id="path5539"
       style="color:#000000;fill:#34495e;stroke-linecap:round;-inkscape-stroke:none"
       d="M 315.53906 154.01758 A 6 6 0 0 0 311.44531 156.0957 A 6 6 0 0 0 312.0957 164.55469 L 474.30273 303.58984 A 224 224 0 0 0 477.20117 290.26953 L 319.9043 155.44531 A 6 6 0 0 0 315.53906 154.01758 z " />
    <path
       style="color:#000000;fill:#34495e;stroke-linecap:round;-inkscape-stroke:none"
       d="m 316.46094,250.01758 a 6,6 0 0 0 -4.36524,1.42773 l -56,48 a 6,6 0 0 0 -0.65039,8.45899 6,6 0 0 0 8.45899,0.65039 l 56,-48 a 6,6 0 0 0 0.65039,-8.45899 6,6 0 0 0 -4.09375,-2.07812 z"
       id="path5543" />
    <path
       id="path6271"
       style="color:#000000;fill:#34495e;stroke-linecap:round;-inkscape-stroke:none"
       d="M 315.53906 250.01758 A 6 6 0 0 0 311.44531 252.0957 A 6 6 0 0 0 312.0957 260.55469 L 445.59766 374.98438 A 224 224 0 0 0 451.47656 364.2207 L 319.9043 251.44531 A 6 6 0 0 0 315.53906 250.01758 z " />
    <path
       id="path7725"
       style="color:#000000;fill:#34495e;stroke-linecap:round;-inkscape-stroke:none"
       d="M 148.46094 298.01758 A 6 6 0 0 0 144.0957 299.44531 L 63.074219 368.89258 A 224 224 0 0 0 69.267578 379.38672 L 151.9043 308.55469 A 6 6 0 0 0 152.55469 300.0957 A 6 6 0 0 0 148.46094 298.01758 z " />
    <path
       id="path8453"
       style="color:#000000;fill:#34495e;stroke-linecap:round;-inkscape-stroke:none"
       d="M 147.53906 298.01758 A 6 6 0 0 0 143.44531 300.0957 A 6 6 0 0 0 144.0957 308.55469 L 329.15625 467.17773 A 224 224 0 0 0 342.00391 462.38672 L 151.9043 299.44531 A 6 6 0 0 0 147.53906 298.01758 z " />
    <path
       style="color:#000000;fill:#34495e;stroke-linecap:round;-inkscape-stroke:none"
       d="m 260.46094,394.01758 a 6,6 0 0 0 -4.36524,1.42773 l -56,48 a 6,6 0 0 0 -0.65039,8.45899 6,6 0 0 0 8.45899,0.65039 l 56,-48 a 6,6 0 0 0 0.65039,-8.45899 6,6 0 0 0 -4.09375,-2.07812 z"
       id="path9189" />
    <path
       style="fill:#ffffff;stroke:#f1c40f;stroke-width:12;stroke-linecap:round;stroke-linejoin:miter;stroke-dasharray:none;stroke-dashoffset:9.60000038;stroke-opacity:1;stroke-miterlimit:4"
       d="M 148,208 188,96"
       id="path9193"
       sodipodi:nodetypes="cc" />
    <path
       style="fill:#ffffff;stroke:#f1c40f;stroke-width:12;stroke-linecap:round;stroke-linejoin:miter;stroke-dasharray:none;stroke-dashoffset:9.60000038;stroke-opacity:1"
       d="M 316,160 188,96"
       id="path9195"
       sodipodi:nodetypes="cc" />
    <path
       style="fill:#ffffff;stroke:#f1c40f;stroke-width:12;stroke-linecap:round;stroke-linejoin:miter;stroke-dasharray:none;stroke-dashoffset:9.60000038;stroke-opacity:1"
       d="M 316,256 188,96"
       id="path9197"
       sodipodi:nodetypes="cc" />
    <path
       id="path9191"
       style="opacity:1;fill:#f1c40f;fill-opacity:1;stroke:none;stroke-width:48;stroke-linecap:round;stroke-dasharray:none;stroke-opacity:1"
       d="M 212.39062 36.832031 A 224 224 0 0 0 128.76172 72.150391 A 64 64 0 0 0 124 96 A 64 64 0 0 0 188 160 A 64 64 0 0 0 252 96 A 64 64 0 0 0 212.39062 36.832031 z " />
    <circle
       style="fill:none;stroke-width:12;stroke-linecap:round;stroke:#2c3e50;stroke-opacity:1;stroke-dasharray:none"
       id="path236"
       cx="256"
       cy="256"
       r="224" />
  </g>
</svg>
