<?xml version="1.0" encoding="UTF-8" standalone="no"?>
<!-- Generator: Adobe Illustrator 19.0.0, SVG Export Plug-In . SVG Version: 6.00 Build 0)  -->

<svg
   version="1.1"
   id="Capa_1"
   x="0px"
   y="0px"
   viewBox="0 0 470.001 470.001"
   style="enable-background:new 0 0 470.001 470.001;"
   xml:space="preserve"
   sodipodi:docname="logo.svg"
   inkscape:export-filename="D:\workspaces\web-vscode\humbug\humbug\build\icons\256x256.png"
   inkscape:export-xdpi="52.289249"
   inkscape:export-ydpi="52.289249"
   inkscape:version="1.1.2 (0a00cf5339, 2022-02-04, custom)"
   xmlns:inkscape="http://www.inkscape.org/namespaces/inkscape"
   xmlns:sodipodi="http://sodipodi.sourceforge.net/DTD/sodipodi-0.dtd"
   xmlns:xlink="http://www.w3.org/1999/xlink"
   xmlns="http://www.w3.org/2000/svg"
   xmlns:svg="http://www.w3.org/2000/svg"
   xmlns:rdf="http://www.w3.org/1999/02/22-rdf-syntax-ns#"
   xmlns:cc="http://creativecommons.org/ns#"
   xmlns:dc="http://purl.org/dc/elements/1.1/"><sodipodi:namedview
     pagecolor="#ffffff"
     bordercolor="#666666"
     borderopacity="1"
     objecttolerance="10"
     gridtolerance="10"
     guidetolerance="10"
     inkscape:pageopacity="0"
     inkscape:pageshadow="2"
     inkscape:window-width="2560"
     inkscape:window-height="1377"
     id="namedview4526"
     showgrid="true"
     inkscape:snap-bbox="true"
     inkscape:bbox-paths="true"
     inkscape:bbox-nodes="true"
     inkscape:snap-bbox-edge-midpoints="true"
     inkscape:snap-bbox-midpoints="true"
     inkscape:object-paths="true"
     inkscape:snap-intersection-paths="true"
     inkscape:snap-smooth-nodes="true"
     inkscape:snap-midpoints="true"
     showguides="false"
     inkscape:zoom="0.63338578"
     inkscape:cx="171.3016"
     inkscape:cy="25.261066"
     inkscape:window-x="1912"
     inkscape:window-y="-8"
     inkscape:window-maximized="1"
     inkscape:current-layer="Capa_1"
     inkscape:pagecheckerboard="0"><inkscape:grid
       type="xygrid"
       id="grid4540" /></sodipodi:namedview><metadata
     id="metadata4530"><rdf:RDF><cc:Work
         rdf:about=""><dc:format>image/svg+xml</dc:format><dc:type
           rdf:resource="http://purl.org/dc/dcmitype/StillImage" /></cc:Work></rdf:RDF></metadata><defs
     id="defs4528"><linearGradient
       inkscape:collect="always"
       id="linearGradient8119"><stop
         style="stop-color:#1c0008;stop-opacity:1"
         offset="0"
         id="stop8115" /><stop
         style="stop-color:#000000;stop-opacity:0.00465116"
         offset="1"
         id="stop8117" /></linearGradient><linearGradient
       inkscape:collect="always"
       xlink:href="#linearGradient8119"
       id="linearGradient8121"
       x1="38.617661"
       y1="40.616592"
       x2="550"
       y2="550.00098"
       gradientUnits="userSpaceOnUse" /></defs><g
     id="g4495" /><g
     id="g4497" /><g
     id="g4499" /><g
     id="g4501" /><g
     id="g4503" /><g
     id="g4505" /><g
     id="g4507" /><g
     id="g4509" /><g
     id="g4511" /><g
     id="g4513" /><g
     id="g4515" /><g
     id="g4517" /><g
     id="g4519" /><g
     id="g4521" /><g
     id="g4523" /><rect
     ry="30"
     y="0.0010070801"
     x="0"
     height="470"
     width="470"
     id="rect5824"
     style="opacity:1;fill:#273c75;fill-opacity:1;stroke:none;stroke-width:10;stroke-linecap:round;stroke-linejoin:round;stroke-miterlimit:4;stroke-dasharray:none;stroke-opacity:1;paint-order:stroke fill markers" /><path
     style="opacity:1;fill:url(#linearGradient8121);fill-opacity:1;stroke:none;stroke-width:10;stroke-linecap:round;stroke-linejoin:round;stroke-miterlimit:4;stroke-dasharray:none;stroke-opacity:1;paint-order:normal"
     d="M 329.31055 40.617188 L 329.30859 40.619141 C 327.61466 40.646171 326.04961 41.529037 325.15039 42.964844 C 325.15039 42.964844 320.09389 51.040321 314.85742 61.400391 C 309.62095 71.76046 304.03576 84.177104 303.19141 94.714844 C 302.2877 105.99318 306.09526 120.22194 309.90039 132.17969 C 311.68057 137.77395 313.47312 142.7155 314.91016 146.50977 C 314.66652 146.26645 314.42338 146.02256 314.17969 145.7793 C 313.88721 145.48717 313.59529 145.19438 313.30273 144.90234 C 313.0096 144.60957 312.71704 144.31613 312.42383 144.02344 C 312.1307 143.73066 311.83813 143.43722 311.54492 143.14453 C 311.25244 142.85241 310.96053 142.55962 310.66797 142.26758 C 310.37484 141.9748 310.08227 141.68136 309.78906 141.38867 C 309.49593 141.0959 309.20337 140.80245 308.91016 140.50977 C 308.61767 140.21764 308.32576 139.92485 308.0332 139.63281 C 307.74007 139.34004 307.44751 139.04659 307.1543 138.75391 C 306.86116 138.46113 306.5686 138.16769 306.27539 137.875 C 305.98291 137.58288 305.691 137.29008 305.39844 136.99805 C 305.1053 136.70527 304.81274 136.41183 304.51953 136.11914 C 304.22737 135.82734 303.93482 135.53586 303.64258 135.24414 C 303.34912 134.95104 303.05721 134.6563 302.76367 134.36328 C 289.6684 121.28398 276.49644 108.28977 263.125 95.515625 C 261.03911 94.243536 258.57863 93.61566 256.13867 93.714844 C 245.00998 94.331838 239.8788 105.96039 232.05078 112.08203 C 186.80165 157.48573 141.22512 202.59175 96.191406 248.19141 L 96.189453 248.19336 C 91.320753 254.87303 94.386711 263.47339 99.904297 268.7793 C 100.19172 269.08934 100.49179 269.38289 100.79492 269.67383 C 101.08131 269.9822 101.38165 270.27307 101.68359 270.5625 C 101.95886 270.85848 102.24944 271.13555 102.53906 271.41406 C 102.82648 271.7241 103.12655 272.01765 103.42969 272.30859 C 103.71608 272.61697 104.01642 272.90784 104.31836 273.19727 C 104.59363 273.49324 104.88421 273.77032 105.17383 274.04883 C 105.46125 274.35887 105.76132 274.65242 106.06445 274.94336 C 106.35085 275.25173 106.65119 275.54261 106.95312 275.83203 C 107.2284 276.12801 107.51897 276.40508 107.80859 276.68359 C 108.09602 276.99363 108.39608 277.28719 108.69922 277.57812 C 108.98561 277.8865 109.28595 278.17737 109.58789 278.4668 C 109.86316 278.76278 110.15374 279.03985 110.44336 279.31836 C 110.73078 279.6284 111.03085 279.92195 111.33398 280.21289 C 111.61629 280.51686 111.91351 280.80232 112.21094 281.08789 C 112.49147 281.39 112.78655 281.67504 113.08203 281.95898 C 113.36796 282.26722 113.66728 282.55831 113.96875 282.84766 C 114.25105 283.15163 114.54828 283.43709 114.8457 283.72266 C 115.12624 284.02477 115.42132 284.3098 115.7168 284.59375 C 116.00273 284.90198 116.30205 285.19308 116.60352 285.48242 C 116.88582 285.78639 117.18305 286.07185 117.48047 286.35742 C 117.76101 286.65953 118.05609 286.94457 118.35156 287.22852 C 118.6375 287.53675 118.93681 287.82785 119.23828 288.11719 C 119.52058 288.42116 119.81781 288.70662 120.11523 288.99219 C 120.39577 289.2943 120.69085 289.57934 120.98633 289.86328 C 121.27195 290.17118 121.57192 290.46095 121.87305 290.75 C 122.15565 291.05433 122.45224 291.34106 122.75 291.62695 C 123.03054 291.92906 123.32562 292.2141 123.62109 292.49805 C 123.90671 292.80594 124.20669 293.09572 124.50781 293.38477 C 124.79041 293.68909 125.08701 293.97583 125.38477 294.26172 C 125.6653 294.56383 125.96038 294.84887 126.25586 295.13281 C 126.54494 295.44444 126.8474 295.73894 127.15234 296.03125 C 127.43023 296.33005 127.72312 296.61159 128.01562 296.89258 C 128.29734 297.19611 128.59383 297.48237 128.89062 297.76758 C 129.1797 298.0792 129.48216 298.37371 129.78711 298.66602 C 130.065 298.96481 130.35788 299.24636 130.65039 299.52734 C 130.93211 299.83087 131.2286 300.11714 131.52539 300.40234 C 131.81447 300.71397 132.11692 301.00848 132.42188 301.30078 C 132.69714 301.59676 132.98772 301.87383 133.27734 302.15234 C 133.56173 302.4591 133.86038 302.74904 134.16016 303.03711 C 134.44924 303.34873 134.75169 303.64324 135.05664 303.93555 C 135.33191 304.23152 135.62249 304.5086 135.91211 304.78711 C 136.19649 305.09387 136.49515 305.3838 136.79492 305.67188 C 137.084 305.9835 137.38646 306.27801 137.69141 306.57031 C 137.96667 306.86629 138.25724 307.14336 138.54688 307.42188 C 138.83125 307.72863 139.12991 308.01857 139.42969 308.30664 C 139.71877 308.61826 140.02122 308.91277 140.32617 309.20508 C 140.60144 309.50106 140.89202 309.77813 141.18164 310.05664 C 141.46906 310.36668 141.76913 310.66023 142.07227 310.95117 C 142.35866 311.25954 142.65899 311.55042 142.96094 311.83984 C 143.21698 312.11515 143.48734 312.37257 143.75586 312.63281 C 140.05802 311.24173 135.44975 309.57683 130.18164 307.90039 L 130.17969 307.90039 C 119.7173 304.5711 107.51637 301.24023 97.074219 301.06445 L 97.072266 301.06445 C 95.581194 301.03935 94.125954 301.07862 92.716797 301.19141 L 92.714844 301.19141 C 82.177757 302.03571 69.762033 307.61928 59.402344 312.85547 L 59.400391 312.85742 C 49.121259 318.05298 41.089687 323.07034 40.964844 323.14844 L 40.964844 323.15039 C 39.297454 324.1942 38.397115 326.11753 38.664062 328.06641 L 38.664062 328.06836 C 38.844738 329.38458 39.542233 330.53704 40.552734 331.32422 C 40.807985 331.65339 41.103528 331.94625 41.433594 332.20312 C 41.688359 332.5312 41.983355 332.82586 42.3125 333.08203 C 42.56682 333.40953 42.859048 333.70312 43.1875 333.95898 C 43.442751 334.28815 43.738294 334.581 44.068359 334.83789 C 44.323869 335.16692 44.618913 335.46206 44.949219 335.71875 C 45.203157 336.04539 45.494535 336.33845 45.822266 336.59375 C 46.077517 336.92292 46.373059 337.21577 46.703125 337.47266 C 46.958636 337.80169 47.253678 338.09683 47.583984 338.35352 C 47.837924 338.68015 48.1293 338.97321 48.457031 339.22852 C 48.712283 339.55768 49.007824 339.85053 49.337891 340.10742 C 49.564252 340.39891 49.819813 340.66694 50.105469 340.90234 C 51.975182 344.45549 54.120117 348.64877 56.533203 352.5957 L 56.535156 352.59766 C 58.521149 355.84588 60.587207 358.92029 63.185547 361.38281 C 63.472004 361.68312 63.76434 361.97729 64.064453 362.26172 C 64.351325 362.56247 64.644744 362.85582 64.945312 363.14062 C 65.231003 363.44005 65.521041 363.73395 65.820312 364.01758 C 66.10677 364.31789 66.399106 364.61206 66.699219 364.89648 C 66.986091 365.19723 67.27951 365.49058 67.580078 365.77539 C 67.865769 366.07482 68.155807 366.36872 68.455078 366.65234 C 68.741536 366.95266 69.033871 367.24682 69.333984 367.53125 C 69.620856 367.832 69.914275 368.12534 70.214844 368.41016 C 70.500534 368.70958 70.790572 369.00348 71.089844 369.28711 C 71.376301 369.58742 71.668637 369.88159 71.96875 370.16602 C 72.255622 370.46676 72.549041 370.76011 72.849609 371.04492 C 73.1353 371.34435 73.425338 371.63824 73.724609 371.92188 C 74.011067 372.22219 74.303402 372.51636 74.603516 372.80078 C 74.890388 373.10153 75.183807 373.39487 75.484375 373.67969 C 75.770066 373.97911 76.060103 374.27301 76.359375 374.55664 C 76.645833 374.85695 76.938168 375.15112 77.238281 375.43555 C 77.525154 375.73629 77.818572 376.02964 78.119141 376.31445 C 78.404831 376.61388 78.694869 376.90778 78.994141 377.19141 C 79.280599 377.49172 79.572933 377.78589 79.873047 378.07031 C 80.159919 378.37106 80.453338 378.66441 80.753906 378.94922 C 81.039597 379.24865 81.329634 379.54254 81.628906 379.82617 C 81.915364 380.12648 82.2077 380.42065 82.507812 380.70508 C 82.794685 381.00582 83.088103 381.29917 83.388672 381.58398 C 83.674363 381.88341 83.9644 382.17731 84.263672 382.46094 C 84.55013 382.76125 84.842464 383.05542 85.142578 383.33984 C 85.429451 383.64059 85.722868 383.93394 86.023438 384.21875 C 86.309128 384.51818 86.599165 384.81208 86.898438 385.0957 C 87.184895 385.39601 87.47723 385.69018 87.777344 385.97461 C 88.064217 386.27535 88.357634 386.5687 88.658203 386.85352 C 88.943894 387.15294 89.233931 387.44684 89.533203 387.73047 C 89.819662 388.03078 90.111995 388.32494 90.412109 388.60938 C 90.698982 388.91012 90.9924 389.20347 91.292969 389.48828 C 91.57866 389.78771 91.868696 390.08161 92.167969 390.36523 C 92.454427 390.66555 92.746761 390.95972 93.046875 391.24414 C 93.333748 391.54489 93.627165 391.83823 93.927734 392.12305 C 94.213426 392.42247 94.503462 392.71637 94.802734 393 C 95.089193 393.30031 95.381526 393.59448 95.681641 393.87891 C 95.968514 394.17965 96.261931 394.473 96.5625 394.75781 C 96.848192 395.05724 97.138227 395.35114 97.4375 395.63477 C 97.723959 395.93508 98.016292 396.22925 98.316406 396.51367 C 98.60328 396.81442 98.896696 397.10777 99.197266 397.39258 C 99.482957 397.692 99.772989 397.9859 100.07227 398.26953 C 100.35872 398.56984 100.65106 398.86401 100.95117 399.14844 C 101.23805 399.44918 101.53146 399.74253 101.83203 400.02734 C 102.11772 400.32677 102.40776 400.62067 102.70703 400.9043 C 102.99319 401.20429 103.28616 401.49711 103.58594 401.78125 C 103.87326 402.08246 104.16573 402.37688 104.4668 402.66211 C 104.75249 402.96154 105.04252 403.25544 105.3418 403.53906 C 105.62795 403.83905 105.92092 404.13188 106.2207 404.41602 C 106.50803 404.71723 106.8005 405.01164 107.10156 405.29688 C 107.38725 405.59629 107.67729 405.8902 107.97656 406.17383 C 108.20361 406.41185 108.43048 406.65077 108.66602 406.87891 C 109.00363 407.24233 109.35466 407.5968 109.71484 407.94727 C 110.00079 408.24952 110.30191 408.54274 110.60352 408.83594 C 110.88957 409.13801 111.1905 409.43159 111.49219 409.72461 C 111.76855 410.01614 112.05867 410.29894 112.34961 410.58203 C 112.63556 410.88429 112.93668 411.17751 113.23828 411.4707 C 113.52798 411.77663 113.831 412.07446 114.13672 412.37109 C 114.41101 412.66013 114.69966 412.93997 114.98828 413.2207 C 115.27679 413.52555 115.58034 413.82156 115.88477 414.11719 C 116.17102 414.41908 116.47158 414.71301 116.77344 415.00586 C 117.04742 415.29454 117.33477 415.57507 117.62305 415.85547 C 117.91156 416.16032 118.2151 416.45632 118.51953 416.75195 C 118.80578 417.05385 119.10635 417.34778 119.4082 417.64062 C 119.68156 417.92864 119.96828 418.20851 120.25586 418.48828 C 120.54497 418.79382 120.8492 419.09044 121.1543 419.38672 C 121.44055 419.68862 121.74111 419.98254 122.04297 420.27539 C 122.31695 420.56407 122.6043 420.8446 122.89258 421.125 C 123.18109 421.42985 123.48463 421.72586 123.78906 422.02148 C 124.07531 422.32338 124.37588 422.61731 124.67773 422.91016 C 124.95109 423.19817 125.23781 423.47804 125.52539 423.75781 C 125.8145 424.06335 126.11873 424.35997 126.42383 424.65625 C 126.70675 424.95463 127.00456 425.24562 127.30273 425.53516 C 127.58538 425.83325 127.88182 426.12284 128.17969 426.41211 C 128.46105 426.70891 128.75628 426.99711 129.05273 427.28516 C 129.33745 427.58561 129.63732 427.87842 129.9375 428.16992 C 130.22015 428.46802 130.51658 428.7576 130.81445 429.04688 C 131.09582 429.34366 131.39104 429.63187 131.6875 429.91992 C 131.97222 430.22038 132.27208 430.51319 132.57227 430.80469 C 132.85366 431.10146 133.14883 431.38971 133.44531 431.67773 C 133.72788 431.97591 134.02447 432.26533 134.32227 432.55469 C 134.60699 432.85515 134.90685 433.14796 135.20703 433.43945 C 135.48403 433.73158 135.77478 434.01517 136.06641 434.29883 C 136.35492 434.60368 136.65846 434.89968 136.96289 435.19531 C 137.24581 435.49369 137.54363 435.78468 137.8418 436.07422 C 138.11879 436.36635 138.40954 436.64994 138.70117 436.93359 C 138.98969 437.23844 139.29323 437.53445 139.59766 437.83008 C 139.88057 438.12846 140.17839 438.41944 140.47656 438.70898 C 140.75356 439.00112 141.04431 439.2847 141.33594 439.56836 C 141.62445 439.87321 141.92799 440.16922 142.23242 440.46484 C 142.51283 440.76058 142.80812 441.04889 143.10352 441.33594 C 143.38291 441.63083 143.67639 441.91687 143.9707 442.20312 C 144.25919 442.50795 144.56279 442.80401 144.86719 443.09961 C 145.15124 443.39919 145.44862 443.69176 145.74805 443.98242 C 146.02412 444.2735 146.31486 444.55523 146.60547 444.83789 C 146.89395 445.1427 147.19756 445.43877 147.50195 445.73438 C 147.78601 446.03395 148.08339 446.32652 148.38281 446.61719 C 148.65889 446.90826 148.94963 447.19 149.24023 447.47266 C 149.52872 447.77747 149.83232 448.07354 150.13672 448.36914 C 150.42077 448.66872 150.71815 448.96129 151.01758 449.25195 C 151.29366 449.54303 151.58439 449.82476 151.875 450.10742 C 152.16348 450.41223 152.46709 450.70831 152.77148 451.00391 C 153.05554 451.30348 153.35292 451.59605 153.65234 451.88672 C 153.92842 452.1778 154.21916 452.45953 154.50977 452.74219 C 154.79825 453.047 155.10185 453.34308 155.40625 453.63867 C 155.6903 453.93825 155.98768 454.23082 156.28711 454.52148 C 156.56319 454.81256 156.85392 455.09429 157.14453 455.37695 C 157.43302 455.68176 157.73662 455.97784 158.04102 456.27344 C 158.32507 456.57301 158.62244 456.86558 158.92188 457.15625 C 159.19795 457.44733 159.48869 457.72906 159.7793 458.01172 C 160.06778 458.31653 160.37138 458.61261 160.67578 458.9082 C 160.95983 459.20778 161.25722 459.50035 161.55664 459.79102 C 161.83272 460.08209 162.12346 460.36382 162.41406 460.64648 C 162.70255 460.9513 163.00615 461.24737 163.31055 461.54297 C 163.59134 461.83911 163.88582 462.12663 164.18164 462.41406 C 164.46104 462.70896 164.75452 462.99499 165.04883 463.28125 C 165.33731 463.58606 165.64092 463.88214 165.94531 464.17773 C 166.22045 464.46791 166.50925 464.74944 166.79883 465.03125 C 167.08535 465.33416 167.38721 465.62806 167.68945 465.92188 C 167.97947 466.22813 168.28377 466.52532 168.58984 466.82227 C 168.86448 467.11163 169.15241 467.39278 169.44141 467.67383 C 169.72556 467.97401 170.02462 468.2654 170.32422 468.55664 C 170.61216 468.8607 170.91498 469.15629 171.21875 469.45117 C 171.39633 469.63839 171.58409 469.81948 171.76953 470.00195 L 440 470.00195 C 456.62 470.00195 470 456.62195 470 440.00195 L 470 171.76758 C 469.89428 171.66252 469.79112 171.55305 469.68359 171.45117 C 469.39111 171.15014 469.09837 170.84991 468.79688 170.56445 C 468.51389 170.27343 468.23086 169.98349 467.93945 169.70703 C 467.6446 169.40325 467.34894 169.10046 467.04492 168.8125 C 466.76365 168.52313 466.48296 168.23398 466.19336 167.95898 C 465.89456 167.65087 465.59534 167.34459 465.28711 167.05273 C 464.99492 166.75219 464.70158 166.45296 464.40039 166.16797 C 464.12225 165.88206 463.84489 165.59607 463.55859 165.32422 C 463.25979 165.0161 462.96057 164.70983 462.65234 164.41797 C 462.36341 164.12078 462.07312 163.82497 461.77539 163.54297 C 461.49412 163.2536 461.21343 162.96445 460.92383 162.68945 C 460.62502 162.38133 460.32581 162.07506 460.01758 161.7832 C 459.72796 161.48531 459.43713 161.18888 459.13867 160.90625 C 458.85803 160.61757 458.578 160.32905 458.28906 160.05469 C 457.99026 159.74657 457.69104 159.4403 457.38281 159.14844 C 457.0968 158.85425 456.81025 158.56056 456.51562 158.28125 C 456.23174 157.98897 455.94668 157.69755 455.6543 157.41992 C 455.35549 157.1118 455.05628 156.80553 454.74805 156.51367 C 454.45513 156.21238 454.16132 155.91262 453.85938 155.62695 C 453.57825 155.33803 453.29726 155.04994 453.00781 154.77539 C 452.71328 154.47198 452.41892 154.16848 452.11523 153.88086 C 451.82599 153.5833 451.53634 153.28624 451.23828 153.00391 C 450.95525 152.7127 450.67038 152.42313 450.37891 152.14648 C 450.07956 151.83795 449.77951 151.53049 449.4707 151.23828 C 449.19125 150.95103 448.91267 150.66368 448.625 150.39062 C 448.33316 150.08978 448.03911 149.79121 447.73828 149.50586 C 447.4408 149.19941 447.14276 148.89384 446.83594 148.60352 C 446.55549 148.31524 446.27506 148.02788 445.98633 147.75391 C 445.69607 147.45477 445.40462 147.15686 445.10547 146.87305 C 444.81096 146.56961 444.51655 146.26616 444.21289 145.97852 C 443.9315 145.689 443.6491 145.40012 443.35938 145.125 C 443.06056 144.81688 442.76136 144.51061 442.45312 144.21875 C 442.16351 143.92085 441.87267 143.62443 441.57422 143.3418 C 441.29376 143.05332 441.01335 142.76441 440.72461 142.49023 C 440.42581 142.18211 440.12659 141.87585 439.81836 141.58398 C 439.52905 141.28641 439.23953 140.98938 438.94141 140.70703 C 438.66129 140.41888 438.38018 140.13131 438.0918 139.85742 C 437.79693 139.55331 437.50131 139.25118 437.19727 138.96289 C 436.90831 138.66529 436.61807 138.3703 436.32031 138.08789 C 436.03475 137.79374 435.74924 137.49808 435.45508 137.21875 C 435.15789 136.91229 434.85925 136.60874 434.55273 136.31836 C 434.26383 136.02106 433.97544 135.72352 433.67773 135.44141 C 433.38954 135.14479 433.09968 134.84987 432.80273 134.56836 C 432.51345 134.27052 432.22389 133.97402 431.92578 133.69141 C 431.63584 133.39284 431.34567 133.09577 431.04688 132.8125 C 430.75927 132.51637 430.47016 132.22054 430.17383 131.93945 C 429.87895 131.63569 429.58335 131.33286 429.2793 131.04492 C 428.99866 130.75624 428.71863 130.46773 428.42969 130.19336 C 428.13023 129.88457 427.8304 129.57762 427.52148 129.28516 C 427.23188 128.98732 426.94103 128.69078 426.64258 128.4082 C 426.36063 128.11823 426.07938 127.82826 425.78906 127.55273 C 425.49688 127.25159 425.20353 126.95163 424.90234 126.66602 C 424.6071 126.36195 424.3103 126.05967 424.00586 125.77148 C 423.72454 125.4822 423.44395 125.19286 423.1543 124.91797 C 422.86212 124.61682 422.56877 124.31686 422.26758 124.03125 C 421.97168 123.72652 421.67427 123.42355 421.36914 123.13477 C 421.08972 122.84749 420.81108 122.56019 420.52344 122.28711 C 420.23162 121.98623 419.93752 121.68773 419.63672 121.40234 C 419.33992 121.09654 419.04242 120.79171 418.73633 120.50195 C 418.45464 120.21229 418.17286 119.92367 417.88281 119.64844 C 417.59094 119.34763 417.29891 119.04702 416.99805 118.76172 C 416.70342 118.45829 416.40729 118.15676 416.10352 117.86914 C 415.8212 117.57878 415.53876 117.28954 415.24805 117.01367 C 414.95617 116.71287 414.66414 116.41226 414.36328 116.12695 C 414.06866 115.82353 413.77253 115.522 413.46875 115.23438 C 413.18513 114.94267 412.90146 114.65207 412.60938 114.375 C 412.31644 114.07325 412.02268 113.77246 411.7207 113.48633 C 411.42826 113.18533 411.13545 112.88504 410.83398 112.59961 C 410.55036 112.30791 410.2667 112.01731 409.97461 111.74023 C 409.60854 111.36313 409.23571 110.99697 408.85547 110.64453 C 408.63714 110.41972 408.409 110.2034 408.18164 109.98633 C 407.89597 109.68461 407.60055 109.39144 407.29883 109.10352 C 407.01128 108.79997 406.71395 108.50443 406.41016 108.21484 C 406.13055 107.92005 405.84181 107.63317 405.54688 107.35156 C 405.25805 107.04651 404.95952 106.74994 404.6543 106.45898 C 404.37577 106.16533 404.08672 105.88017 403.79297 105.59961 C 403.50552 105.29589 403.20996 104.99873 402.90625 104.70898 C 402.61953 104.4064 402.3224 104.11293 402.01953 103.82422 C 401.74101 103.53057 401.45195 103.24541 401.1582 102.96484 C 400.87075 102.66112 400.5752 102.36396 400.27148 102.07422 C 399.98476 101.77164 399.68763 101.47816 399.38477 101.18945 C 399.10624 100.8958 398.81718 100.61064 398.52344 100.33008 C 398.23599 100.02636 397.94043 99.729195 397.63672 99.439453 C 397.35 99.136869 397.05287 98.843395 396.75 98.554688 C 396.47039 98.259894 396.18167 97.973012 395.88672 97.691406 C 395.60025 97.388843 395.30456 97.093376 395.00195 96.804688 C 394.71838 96.505432 394.42437 96.215363 394.125 95.929688 C 393.83983 95.628642 393.54529 95.336134 393.24414 95.048828 C 392.96006 94.749065 392.66712 94.45606 392.36719 94.169922 C 392.08677 93.873994 391.79587 93.587328 391.5 93.304688 C 391.2141 93.002538 390.91919 92.708231 390.61719 92.419922 C 390.32837 92.11487 390.02983 91.818297 389.72461 91.527344 C 389.44609 91.233693 389.15703 90.948532 388.86328 90.667969 C 388.57583 90.364246 388.28027 90.067087 387.97656 89.777344 C 387.6922 89.477246 387.39791 89.184881 387.09766 88.898438 C 386.81409 88.599181 386.52007 88.309114 386.2207 88.023438 C 385.93675 87.723726 385.64355 87.432575 385.34375 87.146484 C 385.0562 86.842932 384.75887 86.547403 384.45508 86.257812 C 384.17656 85.964162 383.8875 85.679001 383.59375 85.398438 C 383.3063 85.094713 383.01074 84.797557 382.70703 84.507812 C 382.42267 84.207714 382.12839 83.91535 381.82812 83.628906 C 381.54456 83.329649 381.25054 83.039583 380.95117 82.753906 C 380.66642 82.453353 380.37295 82.159905 380.07227 81.873047 C 379.7879 81.572948 379.49361 81.280584 379.19336 80.994141 C 378.90979 80.694883 378.61577 80.404817 378.31641 80.119141 C 378.03124 79.818094 377.7367 79.525588 377.43555 79.238281 C 377.15147 78.938517 376.85852 78.645514 376.55859 78.359375 C 376.27187 78.05679 375.97473 77.763319 375.67188 77.474609 C 375.39227 77.179814 375.10354 76.892936 374.80859 76.611328 C 374.52213 76.308763 374.22643 76.013299 373.92383 75.724609 C 373.64026 75.425352 373.34623 75.135287 373.04688 74.849609 C 372.76211 74.549055 372.46865 74.255609 372.16797 73.96875 C 371.8836 73.668651 371.58931 73.376288 371.28906 73.089844 C 371.00549 72.790586 370.71147 72.500521 370.41211 72.214844 C 370.12736 71.914289 369.83389 71.620843 369.5332 71.333984 C 369.24884 71.033885 368.95455 70.741523 368.6543 70.455078 C 368.37073 70.15582 368.07671 69.865756 367.77734 69.580078 C 367.49259 69.279523 367.19912 68.986078 366.89844 68.699219 C 366.61407 68.399119 366.31978 68.106758 366.01953 67.820312 C 365.73596 67.521055 365.44194 67.230991 365.14258 66.945312 C 364.85783 66.644758 364.56436 66.351313 364.26367 66.064453 C 363.97931 65.764353 363.68501 65.471992 363.38477 65.185547 C 360.92278 62.587318 357.84929 60.520956 354.60156 58.535156 C 354.60057 58.534537 354.59866 58.533903 354.59766 58.533203 C 350.64541 56.11677 346.44499 53.969187 342.88867 52.097656 C 342.64961 51.809344 342.38693 51.545072 342.0918 51.318359 C 341.83486 50.991756 341.54539 50.694993 341.21875 50.443359 C 340.96131 50.115435 340.66747 49.820865 340.33984 49.568359 C 340.08046 49.23768 339.7877 48.937603 339.45703 48.683594 C 339.2001 48.35699 338.91062 48.060228 338.58398 47.808594 C 338.32655 47.480668 338.0327 47.1861 337.70508 46.933594 C 337.44569 46.602913 337.15293 46.302838 336.82227 46.048828 C 336.56533 45.722223 336.27585 45.425464 335.94922 45.173828 C 335.69011 44.843771 335.39656 44.546585 335.06641 44.292969 C 334.80802 43.964517 334.51633 43.666661 334.1875 43.414062 C 333.93057 43.087457 333.64109 42.790699 333.31445 42.539062 C 332.37053 41.336655 330.91021 40.592497 329.3125 40.617188 L 329.31055 40.617188 z "
     id="path6041" /><g
     id="g4541"
     inkscape:export-xdpi="15.477323"
     inkscape:export-ydpi="15.477323"><path
       style="opacity:1;fill:#ffffff;fill-opacity:1;stroke:none;stroke-width:10;stroke-linecap:round;stroke-linejoin:round;stroke-miterlimit:4;stroke-dasharray:none;stroke-opacity:1;paint-order:normal"
       d="m 256.13867,93.714844 c -11.12869,0.616994 -16.25911,12.246466 -24.08713,18.368106 -45.24948,45.40405 -90.82804,90.5104 -135.862087,136.11041 -5.700973,7.82152 -0.537779,18.29375 6.721687,23.00322 34.74819,34.32898 68.67439,69.56401 103.96777,103.29365 8.25658,4.98968 17.76552,-1.20559 22.58042,-8.08979 48.22771,-48.62368 97.30426,-96.47705 144.97622,-145.60747 5.07702,-8.26177 -1.11345,-17.86388 -8.04397,-22.6868 C 331.87721,164.0128 298.18446,129.00899 263.125,95.515625 c -2.08589,-1.272089 -4.54637,-1.899965 -6.98633,-1.800781 z"
       id="rect5776"
       inkscape:connector-curvature="0" /><rect
       ry="4.130435"
       height="130"
       width="8.26087"
       id="rect5778"
       y="267.34073"
       x="-95.000023"
       style="fill:#333333;stroke-width:2.5907445"
       transform="rotate(-45)" /><rect
       ry="2.0652175"
       height="130"
       width="4.130435"
       id="rect5780"
       y="267.34073"
       x="-82.608727"
       style="fill:#333333;stroke-width:2.5907445"
       transform="rotate(-45)" /><rect
       ry="2.0652175"
       height="130"
       width="4.130435"
       id="rect5782"
       y="267.34073"
       x="-61.956532"
       style="fill:#333333;stroke-width:2.5907445"
       transform="rotate(-45)" /><rect
       ry="4.130435"
       height="130"
       width="8.26087"
       id="rect5784"
       y="267.34073"
       x="-49.565235"
       style="fill:#333333;stroke-width:2.5907445"
       transform="rotate(-45)" /><rect
       ry="2.0652175"
       height="130"
       width="4.130435"
       id="rect5786"
       y="267.34073"
       x="-28.913074"
       style="fill:#333333;stroke-width:2.5907445"
       transform="rotate(-45)" /><rect
       ry="2.0652175"
       height="130"
       width="4.130435"
       id="rect5788"
       y="267.34073"
       x="-20.65218"
       style="fill:#333333;stroke-width:2.5907445"
       transform="rotate(-45)" /><rect
       ry="4.130435"
       height="130"
       width="8.26087"
       id="rect5790"
       y="267.34073"
       x="-4.1304512"
       style="fill:#333333;stroke-width:2.5907445"
       transform="rotate(-45)" /><rect
       ry="2.0652175"
       height="130"
       width="4.130435"
       id="rect5792"
       y="267.34073"
       x="16.521709"
       style="fill:#333333;stroke-width:2.5907445"
       transform="rotate(-45)" /><rect
       ry="2.0652175"
       height="130"
       width="4.130435"
       id="rect5794"
       y="267.34073"
       x="24.782604"
       style="fill:#333333;stroke-width:2.5907445"
       transform="rotate(-45)" /><rect
       ry="4.130435"
       height="130"
       width="8.26087"
       id="rect5796"
       y="267.34073"
       x="41.304333"
       style="fill:#333333;stroke-width:2.5907445"
       transform="rotate(-45)" /><rect
       ry="6.195652"
       height="130"
       width="12.391304"
       id="rect5798"
       y="267.34073"
       x="61.956493"
       style="fill:#333333;stroke-width:2.5907445"
       transform="rotate(-45)" /><rect
       ry="2.0652175"
       height="130"
       width="4.130435"
       id="rect5800"
       y="267.34073"
       x="78.478249"
       style="fill:#333333;stroke-width:2.5907445"
       transform="rotate(-45)" /><path
       transform="rotate(-45)"
       style="fill:#333333;stroke-width:2.5907445"
       d="m 90.869548,267.34073 c 2.288261,0 4.130435,1.84217 4.130435,4.13043 v 121.73913 c 0,2.28826 -1.842174,4.13044 -4.130435,4.13044 -2.288261,0 -4.130435,-1.84218 -4.130435,-4.13044 V 271.47116 c 0,-2.28826 1.842174,-4.13043 4.130435,-4.13043 z"
       id="rect5802" /><path
       style="color:#000000;font-style:normal;font-variant:normal;font-weight:normal;font-stretch:normal;font-size:medium;line-height:normal;font-family:sans-serif;font-variant-ligatures:normal;font-variant-position:normal;font-variant-caps:normal;font-variant-numeric:normal;font-variant-alternates:normal;font-feature-settings:normal;text-indent:0;text-align:start;text-decoration:none;text-decoration-line:none;text-decoration-style:solid;text-decoration-color:#000000;letter-spacing:normal;word-spacing:normal;text-transform:none;writing-mode:lr-tb;direction:ltr;text-orientation:mixed;dominant-baseline:auto;baseline-shift:baseline;text-anchor:start;white-space:normal;shape-padding:0;clip-rule:nonzero;display:inline;overflow:visible;visibility:visible;opacity:1;isolation:auto;mix-blend-mode:normal;color-interpolation:sRGB;color-interpolation-filters:linearRGB;solid-color:#000000;solid-opacity:1;vector-effect:none;fill:#ffffff;fill-opacity:1;fill-rule:nonzero;stroke:none;stroke-width:10;stroke-linecap:butt;stroke-linejoin:round;stroke-miterlimit:4;stroke-dasharray:none;stroke-dashoffset:0;stroke-opacity:1;color-rendering:auto;image-rendering:auto;shape-rendering:auto;text-rendering:auto;enable-background:accumulate"
       d="m 97.07227,301.06445 c -1.4918,-0.0251 -2.94763,0.014 -4.35743,0.12696 -10.53773,0.84435 -22.95438,6.42954 -33.31445,11.66601 -10.36007,5.23647 -18.43555,10.29297 -18.43555,10.29297 a 5.0005,5.0005 0 0 0 1.24024,9.03516 c 0,0 0.45623,0.0608 1.9668,1.18945 1.51051,1.12861 3.63387,3.17501 5.63085,6.95508 1.93295,3.65889 4.19666,8.12016 6.73243,12.26758 2.53576,4.14741 5.19165,8.0277 8.93554,10.6875 6.71779,4.77254 12.68585,6.70051 17.26953,8.20898 4.58369,1.50847 7.48608,2.50366 10.375,5.39258 2.86225,2.86224 3.92511,5.91908 5.45508,10.5664 1.52997,4.64736 3.45452,10.62091 8.17774,17.1211 5.32274,7.32528 15.69127,12.23922 23.13476,15.73047 3.63813,1.70639 8.42969,8.63281 8.42969,8.63281 a 5.0005,5.0005 0 0 0 8.53711,0.0996 c 0,0 5.0565,-8.07743 10.29297,-18.4375 5.23647,-10.36007 10.82165,-22.77671 11.66601,-33.31445 0.90371,-11.27834 -2.90189,-25.5071 -6.70703,-37.46485 -3.80513,-11.95774 -7.8125,-21.44726 -7.8125,-21.44726 a 5.0005,5.0005 0 0 0 -2.66211,-2.66211 c 0,0 -9.48952,-4.00542 -21.44726,-7.81055 -10.46303,-3.32949 -22.66485,-6.66054 -33.10742,-6.83594 z m 31.99414,16.33203 c 1.11324,-0.0106 2.25325,0.0201 3.39648,0.0781 2.28646,0.11599 4.58512,0.34427 6.70313,0.57617 3.40625,0.37295 5.77006,0.73067 6.76171,0.88477 a 5.0005,5.0005 0 0 1 4.09961,2.02929 5.0005,5.0005 0 0 1 0.11914,0.16993 5.0005,5.0005 0 0 1 0.79297,3.9707 c -0.12167,2.0754 -1.01775,16.223 -3.52539,24.88672 -4.36055,15.06542 -18.08789,39.89062 -18.08789,39.89062 a 5.0005,5.0005 0 1 1 -8.7832,-4.77929 c 0,0 13.7079,-25.60089 17.26562,-37.89258 1.28897,-4.45329 2.26277,-13.42006 2.78125,-18.9043 -0.85075,-0.10874 -1.52754,-0.20843 -2.51367,-0.31641 -3.95999,-0.43356 -8.83116,-0.72098 -11.23047,-0.47656 -0.85612,0.0872 -3.33236,0.7142 -5.27148,1.33985 -1.93912,0.62564 -3.4668,1.20703 -3.4668,1.20703 a 5.0005,5.0005 0 1 1 -3.55859,-9.34571 c 0,0 1.7517,-0.66604 3.95508,-1.37695 2.20338,-0.71091 4.7327,-1.50903 7.32812,-1.77344 1.03465,-0.10538 2.12113,-0.15736 3.23438,-0.16797 z M 98.20898,326.875 a 5.0005,5.0005 0 0 1 1.9375,9.66406 c 0,0 -7.07696,2.87966 -9.9375,4.31446 -2.59847,1.30334 -8.63476,4.94726 -8.63476,4.94726 a 5.0005353,5.0005353 0 1 1 -5.20313,-8.54101 c 0,0 5.77814,-3.55139 9.35547,-5.34571 3.83944,-1.92579 10.68555,-4.65039 10.68555,-4.65039 a 5.0005,5.0005 0 0 1 1.79687,-0.38867 z"
       id="path5804"
       inkscape:connector-curvature="0" /><path
       style="color:#000000;font-style:normal;font-variant:normal;font-weight:normal;font-stretch:normal;font-size:medium;line-height:normal;font-family:sans-serif;font-variant-ligatures:normal;font-variant-position:normal;font-variant-caps:normal;font-variant-numeric:normal;font-variant-alternates:normal;font-feature-settings:normal;text-indent:0;text-align:start;text-decoration:none;text-decoration-line:none;text-decoration-style:solid;text-decoration-color:#000000;letter-spacing:normal;word-spacing:normal;text-transform:none;writing-mode:lr-tb;direction:ltr;text-orientation:mixed;dominant-baseline:auto;baseline-shift:baseline;text-anchor:start;white-space:normal;shape-padding:0;clip-rule:nonzero;display:inline;overflow:visible;visibility:visible;opacity:1;isolation:auto;mix-blend-mode:normal;color-interpolation:sRGB;color-interpolation-filters:linearRGB;solid-color:#000000;solid-opacity:1;vector-effect:none;fill:#ffffff;fill-opacity:1;fill-rule:nonzero;stroke:none;stroke-width:10;stroke-linecap:butt;stroke-linejoin:round;stroke-miterlimit:4;stroke-dasharray:none;stroke-dashoffset:0;stroke-opacity:1;color-rendering:auto;image-rendering:auto;shape-rendering:auto;text-rendering:auto;enable-background:accumulate"
       d="m 329.30859,40.619141 a 5.0005,5.0005 0 0 0 -4.1582,2.345703 c 0,0 -5.0565,8.075477 -10.29297,18.435547 -5.23647,10.360069 -10.82166,22.776713 -11.66601,33.314453 -0.90371,11.278336 2.90385,25.507096 6.70898,37.464846 3.80513,11.95774 7.81055,21.44726 7.81055,21.44726 a 5.0005,5.0005 0 0 0 2.66211,2.66211 c 0,0 9.48952,4.00737 21.44726,7.8125 11.95775,3.80513 26.1865,7.61074 37.46485,6.70703 10.53773,-0.84437 22.95438,-6.42954 33.31445,-11.66601 10.36007,-5.23647 18.4375,-10.29297 18.4375,-10.29297 a 5.0005,5.0005 0 0 0 -0.0996,-8.53711 c 0,0 -6.92642,-4.79156 -8.63281,-8.42969 -3.49125,-7.44349 -8.40519,-17.81202 -15.73047,-23.13476 -6.50019,-4.72322 -12.47372,-6.64777 -17.1211,-8.17774 -4.64733,-1.52997 -7.70417,-2.592841 -10.5664,-5.455076 -2.88892,-2.888921 -3.88411,-5.791319 -5.39258,-10.375 -1.50847,-4.583681 -3.43643,-10.551746 -8.20898,-17.269531 -2.6598,-3.743903 -6.54009,-6.399783 -10.6875,-8.935547 -4.14742,-2.535763 -8.6087,-4.799469 -12.26758,-6.732422 -3.78007,-1.996984 -5.82647,-4.120331 -6.95508,-5.630859 -1.12861,-1.510528 -1.18945,-1.966797 -1.18945,-1.966797 a 5.0005,5.0005 0 0 0 -4.87696,-3.585937 z m 16.375,40.144531 a 5.0005,5.0005 0 0 1 4.46485,7.439453 c 0,0 -11.29577,21.245205 -14.36719,31.263675 -1.68361,5.49165 -3.20055,16.06832 -4.0625,22.83008 6.76539,-0.84613 17.34665,-2.34679 22.77344,-4.0625 10.46578,-3.30885 32.52929,-15.64649 32.52929,-15.64649 a 5.0005,5.0005 0 0 1 2.72657,-0.68555 5.0005,5.0005 0 0 1 2.21679,9.37891 c 0,0 -21.31011,12.32982 -34.45703,16.48633 -10.18136,3.21891 -27.41366,4.873 -30.04101,5.11328 a 5.0005,5.0005 0 0 1 -6.22071,-3.21094 5.0005,5.0005 0 0 1 -0.0781,-0.24219 5.0005,5.0005 0 0 1 -0.0117,-0.0391 5.0005,5.0005 0 0 1 -0.0664,-2.50976 c 0.16494,-1.74407 1.9297,-19.90846 5.12891,-30.34375 3.8449,-12.54144 15.13086,-33.085941 15.13086,-33.085941 a 5.0005,5.0005 0 0 1 4.33398,-2.685547 z"
       id="path5816"
       inkscape:connector-curvature="0" /></g></svg>
