<?xml version="1.0" encoding="UTF-8" standalone="no"?>
<svg
   xmlns:dc="http://purl.org/dc/elements/1.1/"
   xmlns:cc="http://creativecommons.org/ns#"
   xmlns:rdf="http://www.w3.org/1999/02/22-rdf-syntax-ns#"
   xmlns:svg="http://www.w3.org/2000/svg"
   xmlns="http://www.w3.org/2000/svg"
   xmlns:sodipodi="http://sodipodi.sourceforge.net/DTD/sodipodi-0.dtd"
   xmlns:inkscape="http://www.inkscape.org/namespaces/inkscape"
   sodipodi:docname="diversiplotter.svg"
   inkscape:version="1.0 (4035a4fb49, 2020-05-01)"
   id="svg8"
   version="1.1"
   viewBox="0 0 135.46666 135.46667"
   height="512"
   width="512">
  <defs
     id="defs2" />
  <sodipodi:namedview
     inkscape:window-maximized="0"
     inkscape:window-y="0"
     inkscape:window-x="0"
     inkscape:window-height="1368"
     inkscape:window-width="1718"
     units="px"
     showgrid="true"
     inkscape:document-rotation="0"
     inkscape:current-layer="layer1"
     inkscape:document-units="mm"
     inkscape:cy="318.76232"
     inkscape:cx="264.0244"
     inkscape:zoom="1.4"
     inkscape:pageshadow="2"
     inkscape:pageopacity="0.0"
     borderopacity="1.0"
     bordercolor="#666666"
     pagecolor="#ffffff"
     id="base">
    <inkscape:grid
       empspacing="2"
       id="grid833"
       type="xygrid" />
  </sodipodi:namedview>
  <metadata
     id="metadata5">
    <rdf:RDF>
      <cc:Work
         rdf:about="">
        <dc:format>image/svg+xml</dc:format>
        <dc:type
           rdf:resource="http://purl.org/dc/dcmitype/StillImage" />
        <dc:title />
      </cc:Work>
    </rdf:RDF>
  </metadata>
  <g
     id="layer1"
     inkscape:groupmode="layer"
     inkscape:label="Layer 1">
    <path
       d="M 67.733332,135.46666 9.0745464,101.6 9.0745446,33.866666 67.733328,0 l 58.658782,33.866663 0,67.733327 z"
       inkscape:randomized="0"
       inkscape:rounded="0"
       inkscape:flatsided="true"
       sodipodi:arg2="2.0943951"
       sodipodi:arg1="1.5707963"
       sodipodi:r2="33.866669"
       sodipodi:r1="67.73333"
       sodipodi:cy="67.73333"
       sodipodi:cx="67.73333"
       sodipodi:sides="6"
       id="path1429"
       style="opacity:1;fill:#dcdde1;fill-opacity:1;stroke:none;stroke-width:2.49019;stroke-linejoin:round;stroke-miterlimit:4;stroke-dasharray:none;stroke-opacity:1;paint-order:stroke fill markers"
       sodipodi:type="star" />
    <path
       d="m 76.985168,48.982336 -4.625921,2.670969 -4.625915,2.670594 -4.625914,2.670972 -4.62592,2.670591 -4.625914,2.670971 -4.625917,2.670594 -4.625917,2.670969 -4.625916,2.670594 4.625916,2.67097 4.625917,2.670593 4.625917,-2.670593 4.625914,-2.67097 4.62592,-2.670594 4.625914,-2.670969 4.625915,-2.670594 4.625921,-2.670971 4.625915,-2.670591 4.625919,-2.670972 -4.625919,-2.670594 z"
       inkscape:transform-center-y="-2e-06"
       inkscape:transform-center-x="-2.1166706"
       style="fill:#44bd32;fill-opacity:1;stroke:none;stroke-width:5.51613;stroke-linejoin:round;paint-order:stroke fill markers"
       id="path869" />
    <path
       d="m 58.4815,70.34859 v 5.341563 5.341564 5.341563 5.341563 5.341563 5.341564 l 4.625917,2.67097 4.625916,2.67059 4.625917,-2.67059 4.625916,-2.67097 v -5.341564 -5.341563 l -4.625916,2.670969 -4.625917,2.670594 V 91.714843 86.37328 81.031717 75.690153 L 63.107417,73.01956 Z"
       inkscape:transform-center-x="2.1166671"
       style="fill:#99781e;fill-opacity:1;stroke:none;stroke-width:5.51614;stroke-linejoin:round;paint-order:stroke fill markers"
       id="path901" />
    <path
       d="m 76.985166,48.982336 -4.625916,2.67097 -4.625917,2.670593 v 5.341563 5.341565 5.341563 5.341563 l 4.625917,-2.670593 4.625916,-2.67097 v -5.341563 -5.341565 -5.341563 z"
       inkscape:transform-center-y="-2e-06"
       inkscape:transform-center-x="-2.1166706"
       style="fill:#bf9625;fill-opacity:1;stroke:none;stroke-width:5.51614;stroke-linejoin:round;paint-order:stroke fill markers"
       id="path905" />
    <path
       d="m 58.4815,16.933334 v 5.341563 5.341563 l 4.625917,2.670593 4.625916,2.67097 V 27.61646 22.274897 l -4.625916,-2.67097 z m 9.251833,16.024689 v 5.341564 5.341564 l 4.625917,-2.670972 4.625916,-2.670592 V 32.958023 27.61646 l -4.625916,2.670593 z m 0,10.683128 -4.625916,-2.670972 -4.625917,-2.670592 v 5.341564 5.341185 l 4.625917,2.67097 4.625916,2.670593 v -5.341563 z"
       inkscape:transform-center-x="2.1166671"
       style="fill:#e5b52d;fill-opacity:1;stroke:none;stroke-width:5.51614;stroke-linejoin:round;paint-order:stroke fill markers"
       id="path941" />
    <path
       d="m 39.977834,70.34859 v 5.341563 5.341563 l 4.625916,2.67097 4.625917,2.670594 4.625917,2.670969 4.625914,2.670593 4.62592,2.670967 4.625914,2.670596 4.625915,2.670968 4.625921,2.670597 V 97.056405 91.714842 L 72.359247,89.044249 67.733332,86.37328 63.107418,83.702686 58.481498,81.031716 53.855584,78.361122 49.229667,75.690153 44.60375,73.01956 Z"
       inkscape:transform-center-x="2.1166671"
       style="fill:#328a23;fill-opacity:1;stroke:none;stroke-width:5.51613;stroke-linejoin:round;paint-order:stroke fill markers"
       id="path847" />
    <path
       d="m 58.481498,27.61646 -4.625914,2.670593 -4.625917,2.67097 4.625917,2.670594 4.625914,2.67097 4.62592,2.670592 4.625914,2.670594 4.625915,2.67097 4.625921,2.670593 4.625915,2.670969 4.625919,2.670594 v -5.341563 -5.341563 l -4.625919,-2.670594 -4.625915,-2.670592 -4.625921,-2.67097 -4.625915,-2.670594 -4.625914,-2.67097 z"
       inkscape:transform-center-x="2.1166671"
       style="fill:#51e33b;fill-opacity:1;stroke:none;stroke-width:5.51613;stroke-linejoin:round;paint-order:stroke fill markers"
       id="path891" />
    <path
       id="path1090"
       d="m 67.733333,101.57164 v 16.96169"
       style="fill:none;stroke:#99781e;stroke-width:1.92746;stroke-linecap:butt;stroke-linejoin:miter;stroke-miterlimit:4;stroke-dasharray:none;stroke-opacity:1" />
    <path
       d="m 76.985166,102.34263 v 0.0553 l 0.096,-0.0553 z m 0,0.0553 v 16.13499 h 1.88229 V 103.4848 Z"
       style="color:#000000;font-style:normal;font-variant:normal;font-weight:normal;font-stretch:normal;font-size:medium;line-height:normal;font-family:sans-serif;font-variant-ligatures:normal;font-variant-position:normal;font-variant-caps:normal;font-variant-numeric:normal;font-variant-alternates:normal;font-variant-east-asian:normal;font-feature-settings:normal;font-variation-settings:normal;text-indent:0;text-align:start;text-decoration:none;text-decoration-line:none;text-decoration-style:solid;text-decoration-color:#000000;letter-spacing:normal;word-spacing:normal;text-transform:none;writing-mode:lr-tb;direction:ltr;text-orientation:mixed;dominant-baseline:auto;baseline-shift:baseline;text-anchor:start;white-space:normal;shape-padding:0;shape-margin:0;inline-size:0;clip-rule:nonzero;display:inline;overflow:visible;visibility:visible;isolation:auto;mix-blend-mode:normal;color-interpolation:sRGB;color-interpolation-filters:linearRGB;solid-color:#000000;solid-opacity:1;vector-effect:none;fill:#328a23;fill-opacity:1;fill-rule:nonzero;stroke:none;stroke-width:1.88315;stroke-linecap:butt;stroke-linejoin:miter;stroke-miterlimit:4;stroke-dasharray:none;stroke-dashoffset:0;stroke-opacity:1;color-rendering:auto;image-rendering:auto;shape-rendering:auto;text-rendering:auto;enable-background:accumulate;stop-color:#000000"
       id="path1096" />
  </g>
</svg>
