<?xml version="1.0" encoding="UTF-8" standalone="no"?>
<!-- Created with Inkscape (http://www.inkscape.org/) -->

<svg
   width="512"
   height="512"
   viewBox="0 0 512 512.00002"
   version="1.1"
   id="svg10155"
   inkscape:version="1.2.2 (732a01da63, 2022-12-09)"
   sodipodi:docname="logo-favicon2.svg"
   inkscape:export-filename="logo-favicon2.png"
   inkscape:export-xdpi="96"
   inkscape:export-ydpi="96"
   xml:space="preserve"
   xmlns:inkscape="http://www.inkscape.org/namespaces/inkscape"
   xmlns:sodipodi="http://sodipodi.sourceforge.net/DTD/sodipodi-0.dtd"
   xmlns="http://www.w3.org/2000/svg"
   xmlns:svg="http://www.w3.org/2000/svg"><sodipodi:namedview
     id="namedview10157"
     pagecolor="#ffffff"
     bordercolor="#666666"
     borderopacity="1.0"
     inkscape:showpageshadow="2"
     inkscape:pageopacity="0.0"
     inkscape:pagecheckerboard="0"
     inkscape:deskcolor="#d1d1d1"
     inkscape:document-units="px"
     showgrid="true"
     inkscape:zoom="0.271814"
     inkscape:cx="676.93349"
     inkscape:cy="139.80148"
     inkscape:window-width="2560"
     inkscape:window-height="1377"
     inkscape:window-x="1912"
     inkscape:window-y="-8"
     inkscape:window-maximized="1"
     inkscape:current-layer="layer1"><inkscape:grid
       type="xygrid"
       id="grid10276"
       empspacing="2" /></sodipodi:namedview><defs
     id="defs10152" /><g
     inkscape:label="Layer 1"
     inkscape:groupmode="layer"
     id="layer1"><rect
       style="fill:#fcbd15;fill-opacity:1;stroke-width:5.73889;stroke-linecap:round;stroke-linejoin:round"
       id="rect10056"
       width="256"
       height="256"
       x="256"
       y="256" /><rect
       style="fill:#ed3902;fill-opacity:1;stroke-width:5.73889;stroke-linecap:round;stroke-linejoin:round"
       id="rect10058"
       width="256"
       height="256"
       x="0"
       y="0" /><rect
       style="fill:#f8730e;fill-opacity:1;stroke-width:5.73889;stroke-linecap:round;stroke-linejoin:round"
       id="rect10060"
       width="256"
       height="256"
       x="256"
       y="0" /><rect
       style="fill:#f7d2b0;fill-opacity:1;stroke-width:5.73889;stroke-linecap:round;stroke-linejoin:round"
       id="rect10062"
       width="256"
       height="256"
       x="0"
       y="256" /><path
       id="ellipse402"
       style="fill:#ffffff;stroke-width:3.00094;stroke-linecap:round;stroke-linejoin:round"
       d="M 128,408 C 88,408 56,432 32,400 8,368 69.00231,334.20109 128,336.04058 186.99769,337.88007 248,368 224,400 c -24,32 -56,8 -96,8 z"
       sodipodi:nodetypes="zzzzz" /><circle
       style="fill:#ffffff;fill-opacity:1;stroke-width:9.00281;stroke-linecap:round;stroke-linejoin:round"
       id="circle10070"
       cx="128"
       cy="128"
       r="48" /><ellipse
       style="fill:#ffffff;stroke-width:3.00094;stroke-linecap:round;stroke-linejoin:round"
       id="path240"
       cx="384"
       cy="384"
       rx="48"
       ry="96" /><path
       id="circle537"
       style="fill:#ffd8cc;fill-opacity:1;stroke-width:9.00281;stroke-linecap:round;stroke-linejoin:round"
       d="M 128,176 A 48,48 0 0 0 176,128 48,48 0 0 0 128,80 Z" /><path
       id="ellipse600"
       style="fill:#fff3cc;fill-opacity:1;stroke-width:3.00094;stroke-linecap:round;stroke-linejoin:round"
       d="m 384,480 a 48,96 0 0 0 48,-96 48,96 0 0 0 -48,-96 z" /><g
       id="g302"
       transform="rotate(-135,383.95377,128.18168)"><path
         id="ellipse454"
         style="fill:#ffffff;stroke-width:3.00094;stroke-linecap:round;stroke-linejoin:round"
         d="m 383.90666,80.285891 c 64,-7e-6 96,39.999999 96,47.999989 0,8.00001 -34.70295,48.91976 -96,48.00001 -61.29705,-0.91975 -96,-40 -96,-48.00001 0,-7.99999 32,-47.999996 96,-47.999989 z"
         sodipodi:nodetypes="zczcz" /><path
         id="path1487"
         style="fill:#fde4ce;fill-opacity:1;stroke-width:3.00094;stroke-linecap:round;stroke-linejoin:round"
         d="M 384,175.71484 C 320.67742,175.71485 288.70144,136.57752 288.03125,128 h 191.9375 C 479.29856,136.57752 447.32258,175.71485 384,175.71484 Z" /></g><path
       id="path397"
       style="fill:#fff1e3;stroke-width:3.00094;stroke-linecap:round;stroke-linejoin:round;fill-opacity:1"
       d="M 26.728516 384 C 26.401796 389.26843 27.993235 394.65765 32 400 C 55.999976 431.99997 88.00004 408 128 408 C 167.99996 408 200.00002 431.99997 224 400 C 228.07411 394.56786 229.64923 389.19464 229.25 384 L 26.728516 384 z " /></g></svg>
