<?xml version="1.0" encoding="UTF-8" standalone="no"?>
<!-- Created with Inkscape (http://www.inkscape.org/) -->

<svg
   width="512"
   height="512"
   viewBox="0 0 135.46666 135.46667"
   version="1.1"
   id="svg5"
   inkscape:version="1.1.2 (0a00cf5339, 2022-02-04, custom)"
   sodipodi:docname="logo.svg"
   xmlns:inkscape="http://www.inkscape.org/namespaces/inkscape"
   xmlns:sodipodi="http://sodipodi.sourceforge.net/DTD/sodipodi-0.dtd"
   xmlns="http://www.w3.org/2000/svg"
   xmlns:svg="http://www.w3.org/2000/svg">
  <sodipodi:namedview
     id="namedview7"
     pagecolor="#ffffff"
     bordercolor="#666666"
     borderopacity="1.0"
     inkscape:pageshadow="2"
     inkscape:pageopacity="0.0"
     inkscape:pagecheckerboard="0"
     inkscape:document-units="mm"
     showgrid="true"
     units="px"
     inkscape:snap-bbox="false"
     inkscape:bbox-paths="false"
     inkscape:bbox-nodes="false"
     inkscape:snap-bbox-edge-midpoints="false"
     inkscape:snap-bbox-midpoints="false"
     inkscape:snap-object-midpoints="true"
     inkscape:snap-center="true"
     inkscape:snap-text-baseline="false"
     inkscape:zoom="2.1593938"
     inkscape:cx="524.91584"
     inkscape:cy="463.09293"
     inkscape:window-width="3440"
     inkscape:window-height="1377"
     inkscape:window-x="-8"
     inkscape:window-y="-8"
     inkscape:window-maximized="1"
     inkscape:current-layer="layer1">
    <inkscape:grid
       type="xygrid"
       id="grid824"
       empspacing="2" />
  </sodipodi:namedview>
  <defs
     id="defs2" />
  <g
     inkscape:label="Layer 1"
     inkscape:groupmode="layer"
     id="layer1">
    <g
       id="g4643"
       transform="matrix(0.96240567,0,0,0.96240567,2.5425489,5.0440776)">
      <path
         style="fill:#bd493e;fill-opacity:1;stroke:none;stroke-width:1.21628;stroke-linecap:round;stroke-linejoin:round;stroke-miterlimit:4;stroke-dasharray:none;stroke-opacity:1;paint-order:stroke markers fill"
         d="m 14.136207,72.315154 c -0.07244,3.698216 -0.01122,7.418849 -0.03117,11.125676 0.409221,0.352759 1.137676,0.156108 1.670239,0.337804 4.296246,0.799297 8.106509,3.987466 9.535288,8.16948 0.963487,2.451778 0.570719,5.138874 0.725675,7.705212 0.131961,1.285274 -0.270381,2.698034 0.501032,3.834104 1.127317,2.54558 4.424137,3.85256 6.951088,2.6124 1.487459,-0.6562 2.552473,-2.05903 2.991484,-3.58778 0.138419,-3.026546 -0.073,-6.103656 0.404617,-9.087239 0.877795,-4.220289 4.173858,-7.805156 8.226087,-9.204802 4.556351,-1.562059 9.950995,-0.239355 13.187168,3.346132 2.150833,2.26893 3.306282,5.346329 3.364037,8.445175 0.0056,1.47631 0.230791,3.033429 1.243105,4.182634 1.762697,2.27011 5.436983,2.55919 7.536519,0.59766 1.578007,-1.299977 1.924477,-3.458992 1.863577,-5.390331 0.152458,-5.739269 4.921913,-10.92304 10.57054,-11.67391 4.178154,-0.680158 8.653279,0.943323 11.406193,4.196374 1.265285,1.490609 2.209176,3.279542 2.712876,5.172771 0.415651,3.173439 0.214507,6.391807 0.325355,9.584146 0.103608,1.57234 -0.130276,3.20553 0.293488,4.73903 0.7243,2.18137 2.975935,3.83294 5.312605,3.52948 2.64659,0.0253 5.00075,-2.41945 4.93191,-5.06028 0.22377,-4.03549 -0.13505,-8.125187 0.28324,-12.129357 0.92785,-5.308197 5.72604,-9.745796 11.1622,-10.123062 0.597,-0.133001 1.3441,0.03909 1.87175,-0.244326 0.2541,-2.183313 0.0831,-4.408478 0.13815,-6.60737 -0.0382,-1.494288 0.0763,-3.023884 -0.0575,-4.495979 -9.18264,-0.07258 -18.38775,-0.01044 -27.579009,-0.03114 -26.474458,0 -52.948917,0 -79.423375,0 l -0.109218,0.05348 z"
         id="path6691" />
      <path
         style="fill:#eba754;fill-opacity:1;stroke:none;stroke-width:1.21628;stroke-linecap:round;stroke-linejoin:round;stroke-miterlimit:4;stroke-dasharray:none;stroke-opacity:1;paint-order:stroke markers fill"
         d="M 66.459233,2.0534751 C 53.818189,2.1677686 40.952446,3.5982135 29.177884,8.4476089 22.45714,11.209313 16.180853,15.294486 11.497679,20.907067 c -1.491811,1.720838 -2.7876452,3.661966 -3.3442411,5.898248 -0.9228321,2.571872 -0.5711972,5.341609 -0.6769916,8.015363 -0.00144,7.564138 -0.1336464,15.130702 0.028078,22.693459 0.025272,1.187884 1.118921,2.354314 2.3672493,2.094286 27.5430084,0.14687 55.0867764,0.09849 82.6301224,0.09642 11.282094,-0.03409 22.567304,0.02583 33.847394,-0.117816 1.10706,-0.327978 1.73123,-1.534278 1.57762,-2.646366 0.11259,-8.572038 0.10137,-17.14653 0.028,-25.718896 0.0378,-2.833781 -0.44004,-5.779695 -2.01634,-8.188594 -2.55477,-3.653395 -5.92561,-6.687987 -9.54927,-9.255164 C 107.72085,7.8755705 97.401684,4.937348 87.124856,3.4085178 80.28605,2.4182186 73.367446,2.0197181 66.459963,2.0534582 Z"
         id="path6730" />
      <path
         style="fill:#eba754;fill-opacity:1;stroke:none;stroke-width:1.21628;stroke-linecap:round;stroke-linejoin:round;stroke-miterlimit:4;stroke-dasharray:none;stroke-opacity:1;paint-order:stroke markers fill"
         d="m 122.10971,90.757779 c -1.86563,-0.01122 -3.97418,0.122526 -5.32743,1.591854 -1.17765,1.041557 -1.6259,2.63639 -1.56706,4.166201 -0.13504,3.748286 0.13337,7.544016 -0.23275,11.262456 -0.62503,4.21841 -3.64194,7.94196 -7.57019,9.5439 -2.1857,1.08467 -4.69923,0.87177 -7.07226,0.77063 -4.437869,-0.84135 -8.291538,-4.19624 -9.644987,-8.50497 -0.44353,-1.23018 -0.672722,-2.50528 -0.581922,-3.81525 -0.100515,-3.66413 0.03594,-7.341092 -0.246234,-10.997047 -0.287228,-1.6879 -1.738467,-2.97911 -3.241452,-3.649564 -1.076217,-0.310728 -2.24652,-0.232955 -3.34764,-0.101442 -2.254128,0.661955 -3.84404,2.921912 -3.736729,5.265899 0.07636,4.173714 -1.842295,8.393464 -5.345705,10.749614 -2.004159,1.38304 -4.367477,2.34728 -6.832351,2.24538 -2.130784,0.10686 -4.243658,-0.25168 -6.124783,-1.2953 -3.982149,-2.08091 -6.792761,-6.39639 -6.776617,-10.900086 -0.0056,-1.539081 -0.218158,-3.187553 -1.312989,-4.364099 -0.954054,-1.141276 -2.386791,-1.985592 -3.918443,-1.798024 -2.120622,-0.258026 -4.123854,1.201642 -4.941763,3.099231 -0.62488,1.041991 -0.232476,2.329368 -0.377943,3.485927 -0.143192,3.161931 0.20805,6.534421 -1.406682,9.393001 -2.269654,4.74421 -7.791963,7.57849 -12.967213,6.79645 -5.40607,-0.71098 -10.089806,-5.37583 -10.622538,-10.82777 -0.204119,-2.71364 -0.01404,-5.452697 -0.332094,-8.155758 -0.620977,-2.441646 -3.150371,-4.095665 -5.629365,-3.906791 -1.370463,0.06374 -2.796435,-0.173713 -4.1325026,0.186683 -1.0001837,0.485576 -1.4732516,1.619016 -1.3323053,2.689505 -0.1123103,10.932741 -0.00848,21.866491 -0.011221,32.799631 0.3848779,0.84328 1.1708071,1.65501 2.1839349,1.52531 9.775542,0.17988 19.554649,0.0819 29.331594,0.1169 27.720568,-0.0141 55.441359,0.0489 83.16179,-0.0494 1.49824,-0.0724 3.03473,0.0888 4.51022,-0.19284 0.80929,-0.42065 1.47376,-1.3043 1.27992,-2.25131 -0.0141,-10.89537 0.12238,-21.79223 -0.0343,-32.686692 -0.0253,-1.237461 -1.23032,-2.25598 -2.45725,-2.130872 -1.1132,-0.04857 -2.22819,-0.06554 -3.34242,-0.0613 z"
         id="path6806" />
      <circle
         style="fill:#4d4d4d;fill-opacity:1;stroke:none;stroke-width:6.78142;stroke-linecap:round;stroke-linejoin:round;stroke-miterlimit:4;stroke-dasharray:none;stroke-opacity:1;paint-order:stroke markers fill"
         id="path6947"
         cx="25.679266"
         cy="34.318306"
         r="3.7143424" />
      <circle
         style="fill:#4d4d4d;fill-opacity:1;stroke:none;stroke-width:6.78142;stroke-linecap:round;stroke-linejoin:round;stroke-miterlimit:4;stroke-dasharray:none;stroke-opacity:1;paint-order:stroke markers fill"
         id="circle8086"
         cx="46.479561"
         cy="28.375362"
         r="3.7143424" />
      <circle
         style="fill:#4d4d4d;fill-opacity:1;stroke:none;stroke-width:6.78142;stroke-linecap:round;stroke-linejoin:round;stroke-miterlimit:4;stroke-dasharray:none;stroke-opacity:1;paint-order:stroke markers fill"
         id="circle8086-5"
         cx="64.308418"
         cy="10.546522"
         r="3.7143424" />
      <circle
         style="fill:#4d4d4d;fill-opacity:1;stroke:none;stroke-width:6.78142;stroke-linecap:round;stroke-linejoin:round;stroke-miterlimit:4;stroke-dasharray:none;stroke-opacity:1;paint-order:stroke markers fill"
         id="circle8086-9"
         cx="46.479561"
         cy="49.175682"
         r="3.7143424" />
      <circle
         style="fill:#4d4d4d;fill-opacity:1;stroke:none;stroke-width:6.78142;stroke-linecap:round;stroke-linejoin:round;stroke-miterlimit:4;stroke-dasharray:none;stroke-opacity:1;paint-order:stroke markers fill"
         id="circle8088"
         cx="111.85197"
         cy="43.232738"
         r="3.7143424" />
      <circle
         style="fill:#4d4d4d;fill-opacity:1;stroke:none;stroke-width:6.78142;stroke-linecap:round;stroke-linejoin:round;stroke-miterlimit:4;stroke-dasharray:none;stroke-opacity:1;paint-order:stroke markers fill"
         id="circle8090"
         cx="94.023155"
         cy="22.432409"
         r="3.7143424" />
      <circle
         style="fill:#4d4d4d;fill-opacity:1;stroke:none;stroke-width:6.78142;stroke-linecap:round;stroke-linejoin:round;stroke-miterlimit:4;stroke-dasharray:none;stroke-opacity:1;paint-order:stroke markers fill"
         id="circle8092"
         cx="79.165764"
         cy="43.232738"
         r="3.7143424" />
      <path
         id="rect952"
         style="color:#000000;fill:#4d4d4d;stroke-width:2.80768;stroke-linecap:round;stroke-linejoin:round;-inkscape-stroke:none;paint-order:stroke markers fill"
         d="M 65.430793,-5.2333257 C 47.197782,-5.0598671 27.069194,-1.9428996 12.29246,9.8939164 9.2148121,12.359247 4.4656454,16.553643 2.0703454,22.034778 -0.3076514,27.476283 0.01911857,32.774842 0.11336857,33.826307 v 23.597007 c 0,5.28588 4.37035683,9.656776 9.65625353,9.656776 H 125.65813 c 6.8507,0 9.65729,-4.370896 9.65729,-9.656776 V 33.861446 c 0.13335,-1.237665 0.52954,-6.527228 -1.66709,-11.93674 -2.08743,-5.140723 -6.44575,-8.86752 -8.98808,-11.032917 -15.1876,-12.9358335 -36.769953,-15.9190634 -55.611077,-16.1220141 -1.19655,-0.012914 -2.40282,-0.014834 -3.61838,-0.0031 z m 1.80971,7.4186684 h 5.1e-4 c 0.5767,2.25e-5 1.15209,0.00252 1.72548,0.00879 18.077464,0.1947124 37.959897,3.3520557 50.879587,14.3562303 2.28785,1.948645 5.8533,5.541514 6.91896,8.165911 1.63042,4.01516 1.15237,8.461499 1.15237,8.461499 -0.0117,0.158467 -0.0117,0.317468 0,0.475938 h -0.0336 v 0.0016 23.768058 c 0,1.298898 -0.92683,2.232422 -2.2257,2.232422 H 9.7685821 c -1.2989,0 -2.22518,-0.933524 -2.22518,-2.232422 v -23.768058 -0.0016 h -0.003 c 7.4e-4,-0.131792 -0.006,-0.263171 -0.0196,-0.39429 0,0 -0.37778,-4.290073 1.35392,-8.252727 C 10.266462,21.821989 14.35052,17.76133 16.935727,15.690467 30.016031,5.2127645 49.362809,2.1846678 67.240503,2.1853427 Z" />
      <path
         id="rect911"
         style="fill:#ffffff;stroke:#4d4d4d;stroke-width:4.49792;stroke-linecap:round;stroke-linejoin:round"
         d="m 118.30409,78.180642 c -5.23229,2.596264 -11.55377,-2.095356 -17.39475,-2.116667 -6.213756,-0.02267 -12.307648,2.203983 -18.520831,2.116666 -6.235671,-0.08763 -12.284856,-2.708593 -18.520827,-2.645833 -5.466882,0.05502 -10.719604,2.679126 -16.186661,2.645833 -5.088307,-0.03099 -9.94577,-2.635705 -15.034161,-2.645833 -5.2062,-0.01036 -10.652243,4.797775 -15.392894,2.645834 -2.82944,-1.284378 -5.137354,-4.86045 -4.859189,-7.955281 0.200877,-2.234929 1.692243,-5.027083 4.47725,-5.027083 H 118.47199 c 2.785,0 4.25422,2.794257 4.47724,5.027083 0.3052,3.055514 -1.89443,6.590383 -4.64514,7.955281 z"
         sodipodi:nodetypes="aaaaaaaassaa" />
      <path
         id="path4128"
         style="color:#000000;fill:#4d4d4d;stroke-width:2.80768;stroke-linecap:round;stroke-linejoin:round;-inkscape-stroke:none;paint-order:stroke markers fill"
         d="m 9.7696221,67.08164 v 16.433107 h -10e-4 c -5.2858967,0 -9.65521353,4.377608 -9.65521353,9.66349 v 32.683283 c 0,5.28589 4.36931683,9.65575 9.65521353,9.65575 H 125.65817 c 5.28584,0 9.65729,-4.36986 9.65729,-9.65575 V 93.178237 c 0,-5.285882 -4.37145,-9.66349 -9.65729,-9.66349 v 0 l -0.0827,-16.433107 h -4.45759 l 0.0827,16.434655 h -0.74414 v 0.0016 c -6.92944,0.0013 -12.62765,5.699435 -12.62765,12.629205 v 9.65678 10e-4 c 0,2.91592 -2.28219,5.19916 -5.19813,5.19916 -2.915899,0 -5.204349,-2.28324 -5.204349,-5.19916 v -10e-4 h 0.003 V 96.1471 h -0.001 v -0.0016 c 0,-6.930681 -5.698017,-12.630756 -12.628671,-12.630753 -6.930677,0 -12.628684,5.700072 -12.628684,12.630753 v 0.0016 h 5.3e-4 v 0.74259 0.0016 c 0,2.915917 -2.2822,5.19815 -5.198133,5.19815 -2.9159,0 -5.20434,-2.282233 -5.20434,-5.19815 v -0.0016 h 0.003 V 96.1471 h -0.005 v -0.0016 c 0,-6.930681 -5.698557,-12.630756 -12.629194,-12.630753 -6.930674,0 -12.628171,5.700072 -12.628171,12.630753 v 0.0016 h 0.005 v 5.19969 5.3e-4 c 0,2.91591 -2.28272,5.19916 -5.198637,5.19916 -2.9159,0 -5.204337,-2.28325 -5.204337,-5.19916 v -5.3e-4 h 0.003 V 96.1471 h 0.003 c 0,-6.930673 -5.700077,-12.6292 -12.630754,-12.629205 h -5.3e-4 v 7.430037 h 5.3e-4 c 2.91593,0 5.199167,2.283248 5.199167,5.199168 v 5.19969 h 10e-4 v 5.3e-4 c 0,6.93068 5.698547,12.63075 12.629194,12.63075 6.930664,0 12.628161,-5.70007 12.628161,-12.63075 v -5.3e-4 h -0.001 V 96.1471 h -0.003 v -0.0016 c 0,-2.91592 2.28271,-5.199166 5.198647,-5.199166 2.91589,0 5.204327,2.283246 5.204327,5.199166 v 0.0016 0.74259 h 0.001 v 0.0016 c 0,6.9307 5.698547,12.62973 12.629197,12.62973 6.930683,0 12.62817,-5.69903 12.62817,-12.62973 v -0.0016 h -10e-4 V 96.1471 96.1455 c 0,-2.91592 2.283227,-5.199166 5.199157,-5.199166 2.915917,0 5.204337,2.283246 5.204337,5.199166 v 0.0016 h -0.003 v 9.65678 h 0.001 v 10e-4 c 0,6.93067 5.697527,12.63023 12.628173,12.63023 6.93068,0 12.62921,-5.69956 12.62921,-12.63023 v -10e-4 0 -9.65678 h 0.003 c 0,-2.91592 2.28222,-5.199168 5.19814,-5.199168 v 0 -0.0031 h 2.22517 2.97243 c 1.2989,0 2.22571,0.934559 2.22571,2.233454 v 32.683284 c 0,1.29891 -0.92681,2.22571 -2.22571,2.22571 H 9.7685821 c -1.29889,0 -2.22518,-0.9268 -2.22518,-2.22571 V 93.178237 c 0,-1.298895 0.92629,-2.232937 2.22518,-2.232937 L 12.74101,90.9437 v 0.0016 h 0.74208 v -7.429005 h 0.7431 l 10e-6,-16.434655 z"
         sodipodi:nodetypes="ccssssssssccccccscsssccccssscccsssccccssscccsssccccsccssccsssccccssscccssscccsssccccsssccccscccssssssscccccccc" />
    </g>
  </g>
</svg>
