<?xml version="1.0" encoding="UTF-8" standalone="no"?>
<!-- Created with Inkscape (http://www.inkscape.org/) -->

<svg
   width="512"
   height="512"
   viewBox="0 0 512 512"
   version="1.1"
   id="svg5"
   xml:space="preserve"
   inkscape:version="1.2.2 (732a01da63, 2022-12-09)"
   sodipodi:docname="logo.svg"
   xmlns:inkscape="http://www.inkscape.org/namespaces/inkscape"
   xmlns:sodipodi="http://sodipodi.sourceforge.net/DTD/sodipodi-0.dtd"
   xmlns="http://www.w3.org/2000/svg"
   xmlns:svg="http://www.w3.org/2000/svg"><sodipodi:namedview
     id="namedview7"
     pagecolor="#ffffff"
     bordercolor="#666666"
     borderopacity="1.0"
     inkscape:showpageshadow="2"
     inkscape:pageopacity="0.0"
     inkscape:pagecheckerboard="0"
     inkscape:deskcolor="#d1d1d1"
     inkscape:document-units="mm"
     showgrid="true"
     inkscape:zoom="1.5376122"
     inkscape:cx="25.038823"
     inkscape:cy="336.23562"
     inkscape:window-width="2560"
     inkscape:window-height="1377"
     inkscape:window-x="1912"
     inkscape:window-y="-8"
     inkscape:window-maximized="1"
     inkscape:current-layer="layer1"><inkscape:grid
       type="xygrid"
       id="grid132"
       empspacing="2" /></sodipodi:namedview><defs
     id="defs2" /><g
     inkscape:label="Layer 1"
     inkscape:groupmode="layer"
     id="layer1"><g
       id="g2869"
       transform="matrix(1.2762237,0,0,1.2762237,-40.083898,-50.293688)"><path
         id="rect302"
         style="fill:#48dafb;fill-opacity:1;stroke:none;stroke-width:12;stroke-linecap:round;stroke-dashoffset:9.6"
         d="m 248,176 v 16 h 16 v -16 z m -96,16 v 16 16 16 h 16 v -16 -16 -16 z m 16,48 v 16 16 h 16 v 16 H 168 152 136 120 V 272 H 104 V 256 H 88 v 16 16 h 16 v 16 h 16 16 16 16 16 16 16 v -16 h 16 v 16 h 16 16 16 16 16 16 16 v -16 h 16 v -16 h -16 -16 -16 v -16 h 16 v -16 h -16 v -16 h -16 v 16 16 16 h -16 -16 -16 -16 -16 v -16 h -16 -16 v -16 z m 128,-48 v 16 h 16 V 192 Z M 104,336 v 16 h 16 v -16 z m 0,16 H 88 v 16 h 16 z M 88,368 H 72 v 16 H 88 Z M 72,384 H 56 v 16 h 16 z m 160,-48 v 16 h 16 v -16 z m 0,16 h -16 v 16 h 16 z m -16,16 h -16 v 16 h 16 z m -16,16 h -16 v 16 h 16 z m 160,-48 v 16 h 16 v -16 z m 0,16 h -16 v 16 h 16 z m -16,16 h -16 v 16 h 16 z m -16,16 h -16 v 16 h 16 z" /><path
         id="rect1298"
         style="fill:#2980b9;fill-opacity:1;stroke:none;stroke-width:12;stroke-linecap:round;stroke-dashoffset:9.6"
         d="m 184,160 v 16 h 16 16 16 16 16 v -16 h -16 -16 -16 -16 z m 80,16 v 16 h 16 16 16 v -16 h -16 -16 z m 48,16 v 16 16 16 h 16 16 v -16 h -16 v -16 -16 z m 32,48 v 16 h 16 v 16 16 h -16 v 16 h 16 16 v -16 -16 -16 -16 h -16 z m 0,64 h -16 -16 -16 -16 -16 -16 -16 v 16 h 16 16 16 16 16 16 16 z m -112,0 v -16 h -16 v 16 z m -16,0 H 200 184 168 152 136 120 104 V 288 H 88 v -16 -16 h 16 v -16 h 16 16 16 v -16 -16 -16 h -16 v 16 16 H 120 104 88 v 16 H 72 v 16 16 16 16 h 16 v 16 h 16 16 16 16 16 16 16 16 z M 152,192 h 16 16 v -16 h -16 -16 z m 0,48 v 16 h 16 v -16 z m 16,96 v 16 h 16 v -16 z m 0,16 h -16 v 16 h 16 z m -16,16 h -16 v 16 h 16 z m -16,16 h -16 v 16 h 16 z m 160,-48 v 16 h 16 v -16 z m 0,16 h -16 v 16 h 16 z m -16,16 h -16 v 16 h 16 z m -16,16 h -16 v 16 h 16 z" /><path
         id="rect2385"
         style="fill:#f1c40f;fill-opacity:1;stroke:none;stroke-width:12;stroke-linecap:round;stroke-dashoffset:9.6"
         d="m 280,80 v 16 h 16 V 80 Z m 48,0 v 16 h 16 V 80 Z m -96,16 v 16 h 16 V 96 Z m 144,0 v 16 h 16 V 96 Z m -96,32 v 16 h -16 v 16 16 h 16 16 16 v 16 h 16 v 16 16 h 16 v -16 h 16 v -16 -16 -16 -16 h -16 v -16 h -16 -16 -16 z m -64,16 v 16 h 16 v -16 z m 176,0 v 16 h 16 v -16 z m 0,48 v 16 h 16 v -16 z m -16,48 v 16 h 16 v -16 z" /><path
         id="rect2596"
         style="fill:#f39c12;fill-opacity:1;stroke:none;stroke-width:12;stroke-linecap:round;stroke-dashoffset:9.6"
         d="m 280,112 v 16 h 16 16 16 16 v -16 h -16 -16 -16 z m 64,16 v 16 h 16 v -16 z m 16,16 v 16 16 16 16 h 16 v -16 -16 -16 -16 z m 0,64 h -16 v 16 h 16 z m -80,-80 h -16 v 16 h 16 z m -16,16 h -16 v 16 h 16 z" /><path
         id="rect2733"
         style="fill:#ffffff;fill-opacity:1;stroke:none;stroke-width:12;stroke-linecap:round;stroke-dashoffset:9.6"
         d="m 184,176 v 16 h -16 v 16 16 16 h 16 v 16 h 16 16 v 16 h 16 16 16 16 16 v -16 -16 -16 h 16 v -16 h -16 v -16 h -16 -16 -16 v -16 h -16 -16 -16 z m -80,64 v 16 16 h 16 v 16 h 16 16 16 16 v -16 h -16 v -16 h -16 v -16 h -16 -16 z m 224,0 v 16 h -16 v 16 h 16 16 16 v -16 h -16 v -16 z" /></g></g></svg>
